<?xml version="1.0" encoding="UTF-8"?>
<svg width="48px" height="48px" viewBox="0 0 48 48" version="1.1" xmlns="http://www.w3.org/2000/svg" xmlns:xlink="http://www.w3.org/1999/xlink">
    <!-- Generator: Sketch 52.5 (67469) - http://www.bohemiancoding.com/sketch -->
    <title>icons/facebook</title>
    <desc>Created with Sketch.</desc>
    <g id="icons/facebook" stroke="none" stroke-width="1" fill="none" fill-rule="evenodd">
        <g id="facebook">
            <g>
                <path d="M45.3328539,47.9811236 C46.7951461,47.9811236 47.980764,46.7953258 47.980764,45.3330337 L47.980764,2.64808989 C47.980764,1.18525843 46.7949663,0 45.3328539,0 L2.64808989,0 C1.18525843,0 0,1.1854382 0,2.64808989 L0,45.3328539 C0,46.7953258 1.18525843,47.9809438 2.64808989,47.9809438 L45.3328539,47.9809438 L45.3328539,47.9811236 Z" id="Blue_1_" fill="#485A96"></path>
                <path d="M33.1059775,47.9811236 L33.1059775,29.4002697 L39.3427416,29.4002697 L40.2764944,22.1589213 L33.1057978,22.1589213 L33.1057978,17.5356404 C33.1057978,15.4391011 33.6879101,14.010427 36.6944719,14.010427 L40.5288989,14.0086292 L40.5288989,7.53204494 C39.8657079,7.44395506 37.5893933,7.24674157 34.9414831,7.24674157 C29.4128539,7.24674157 25.6278652,10.6213034 25.6278652,16.8186966 L25.6278652,22.1589213 L19.3751011,22.1589213 L19.3751011,29.4002697 L25.6278652,29.4002697 L25.6278652,47.9809438 L33.1059775,47.9809438 L33.1059775,47.9811236 Z" id="f" fill="#FFFFFF"></path>
            </g>
        </g>
    </g>
</svg>