<?xml version="1.0" encoding="UTF-8"?>
<svg width="48px" height="48px" viewBox="0 0 48 48" version="1.1" xmlns="http://www.w3.org/2000/svg" xmlns:xlink="http://www.w3.org/1999/xlink">
    <!-- Generator: Sketch 52.5 (67469) - http://www.bohemiancoding.com/sketch -->
    <title>icons/github</title>
    <desc>Created with Sketch.</desc>
    <g id="icons/github" stroke="none" stroke-width="1" fill="none" fill-rule="evenodd">
        <g id="github" transform="translate(0.000000, 1.000000)" fill="#1B1F23">
            <g id="Path">
                <path d="M24,0 C10.74,0 0,10.7794194 0,24.0880881 C0,34.7470671 6.87,43.74999 16.41,46.9416617 C17.61,47.1524324 18.06,46.4297898 18.06,45.7974775 C18.06,45.2253854 18.03,43.3284484 18.03,41.3110711 C12,42.4251451 10.44,39.8356757 9.96,38.4807207 C9.69,37.7881882 8.52,35.6503704 7.5,35.0782783 C6.66,34.6266266 5.46,33.5125526 7.47,33.4824424 C9.36,33.4523323 10.71,35.2288288 11.16,35.9514715 C13.32,39.5947948 16.77,38.5710511 18.15,37.9387387 C18.36,36.373013 18.99,35.3191592 19.68,34.716957 C14.34,34.1147548 8.76,32.0371572 8.76,22.8234635 C8.76,20.2038839 9.69,18.035956 11.22,16.3497898 C10.98,15.7475876 10.14,13.2785586 11.46,9.96644645 C11.46,9.96644645 13.47,9.33413413 18.06,12.4354755 C19.98,11.8934935 22.02,11.6225025 24.06,11.6225025 C26.1,11.6225025 28.14,11.8934935 30.06,12.4354755 C34.65,9.30402402 36.66,9.96644645 36.66,9.96644645 C37.98,13.2785586 37.14,15.7475876 36.9,16.3497898 C38.43,18.035956 39.36,20.1737738 39.36,22.8234635 C39.36,32.0672673 33.75,34.1147548 28.41,34.716957 C29.28,35.4697097 30.03,36.914995 30.03,39.1732533 C30.03,42.395035 30,44.9845045 30,45.7974775 C30,46.4297898 30.45,47.1825425 31.65,46.9416617 C41.13,43.74999 48,34.716957 48,24.0880881 C48,10.7794194 37.26,0 24,0 Z"></path>
            </g>
        </g>
    </g>
</svg>