<?xml version="1.0" encoding="UTF-8"?>
<svg width="216px" height="64px" viewBox="0 0 216 64" version="1.1" xmlns="http://www.w3.org/2000/svg" xmlns:xlink="http://www.w3.org/1999/xlink">
    <!-- Generator: Sketch 52.5 (67469) - http://www.bohemiancoding.com/sketch -->
    <title>icons/googlePlay</title>
    <desc>Created with Sketch.</desc>
    <defs>
        <linearGradient x1="90.7692308%" y1="4.84%" x2="-38.3307692%" y2="71.968%" id="linearGradient-1">
            <stop stop-color="#00A0FF" offset="0%"></stop>
            <stop stop-color="#00A1FF" offset="0.7%"></stop>
            <stop stop-color="#00BEFF" offset="26%"></stop>
            <stop stop-color="#00D2FF" offset="51.2%"></stop>
            <stop stop-color="#00DFFF" offset="76%"></stop>
            <stop stop-color="#00E3FF" offset="100%"></stop>
        </linearGradient>
        <linearGradient x1="107.724138%" y1="49.4235294%" x2="-130.669951%" y2="49.4235294%" id="linearGradient-2">
            <stop stop-color="#FFE000" offset="0%"></stop>
            <stop stop-color="#FFBD00" offset="40.9%"></stop>
            <stop stop-color="#FFA500" offset="77.5%"></stop>
            <stop stop-color="#FF9C00" offset="100%"></stop>
        </linearGradient>
        <linearGradient x1="86.3892216%" y1="17.81427%" x2="-49.8862275%" y2="194.389687%" id="linearGradient-3">
            <stop stop-color="#FF3A44" offset="0%"></stop>
            <stop stop-color="#C31162" offset="100%"></stop>
        </linearGradient>
        <linearGradient x1="-18.5808383%" y1="-54.5282125%" x2="42.2754491%" y2="24.6924404%" id="linearGradient-4">
            <stop stop-color="#32A071" offset="0%"></stop>
            <stop stop-color="#2DA771" offset="6.9%"></stop>
            <stop stop-color="#15CF74" offset="47.6%"></stop>
            <stop stop-color="#06E775" offset="80.1%"></stop>
            <stop stop-color="#00F076" offset="100%"></stop>
        </linearGradient>
    </defs>
    <g id="icons/googlePlay" stroke="none" stroke-width="1" fill="none" fill-rule="evenodd">
        <g id="google_play">
            <g>
                <path d="M208,64 L8,64 C3.52,64 0,60.48 0,56 L0,8 C0,3.52 3.52,0 8,0 L208,0 C212.48,0 216,3.52 216,8 L216,56 C216,60.48 212.48,64 208,64 Z" id="Path" fill="#000000"></path>
                <path d="M208,1.28 C211.68,1.28 214.72,4.32 214.72,8 L214.72,56 C214.72,59.68 211.68,62.72 208,62.72 L8,62.72 C4.32,62.72 1.28,59.68 1.28,56 L1.28,8 C1.28,4.32 4.32,1.28 8,1.28 L208,1.28 Z M208,0 L8,0 C3.52,0 0,3.68 0,8 L0,56 C0,60.48 3.52,64 8,64 L208,64 C212.48,64 216,60.48 216,56 L216,8 C216,3.68 212.48,0 208,0 Z" id="Shape" fill="#A6A6A6" fill-rule="nonzero"></path>
                <path d="M75.84,16.32 C75.84,17.6 75.52,18.72 74.72,19.52 C73.76,20.48 72.64,20.96 71.2,20.96 C69.76,20.96 68.64,20.48 67.68,19.52 C66.72,18.56 66.24,17.44 66.24,16 C66.24,14.56 66.72,13.44 67.68,12.48 C68.64,11.52 69.76,11.04 71.2,11.04 C71.84,11.04 72.48,11.2 73.12,11.52 C73.76,11.84 74.24,12.16 74.56,12.64 L73.76,13.44 C73.12,12.64 72.32,12.32 71.2,12.32 C70.24,12.32 69.28,12.64 68.64,13.44 C67.84,14.08 67.52,15.04 67.52,16.16 C67.52,17.28 67.84,18.24 68.64,18.88 C69.44,19.52 70.24,20 71.2,20 C72.32,20 73.12,19.68 73.92,18.88 C74.4,18.4 74.72,17.76 74.72,16.96 L71.2,16.96 L71.2,15.68 L75.84,15.68 L75.84,16.32 Z M83.2,12.32 L78.88,12.32 L78.88,15.36 L82.88,15.36 L82.88,16.48 L78.88,16.48 L78.88,19.52 L83.2,19.52 L83.2,20.8 L77.6,20.8 L77.6,11.2 L83.2,11.2 L83.2,12.32 Z M88.48,20.8 L87.2,20.8 L87.2,12.32 L84.48,12.32 L84.48,11.2 L91.2,11.2 L91.2,12.32 L88.48,12.32 L88.48,20.8 Z M95.84,20.8 L95.84,11.2 L97.12,11.2 L97.12,20.8 L95.84,20.8 Z M102.56,20.8 L101.28,20.8 L101.28,12.32 L98.56,12.32 L98.56,11.2 L105.12,11.2 L105.12,12.32 L102.4,12.32 L102.4,20.8 L102.56,20.8 Z M117.76,19.52 C116.8,20.48 115.68,20.96 114.24,20.96 C112.8,20.96 111.68,20.48 110.72,19.52 C109.76,18.56 109.28,17.44 109.28,16 C109.28,14.56 109.76,13.44 110.72,12.48 C111.68,11.52 112.8,11.04 114.24,11.04 C115.68,11.04 116.8,11.52 117.76,12.48 C118.72,13.44 119.2,14.56 119.2,16 C119.2,17.44 118.72,18.56 117.76,19.52 Z M111.68,18.72 C112.32,19.36 113.28,19.84 114.24,19.84 C115.2,19.84 116.16,19.52 116.8,18.72 C117.44,18.08 117.92,17.12 117.92,16 C117.92,14.88 117.6,13.92 116.8,13.28 C116.16,12.64 115.2,12.16 114.24,12.16 C113.28,12.16 112.32,12.48 111.68,13.28 C111.04,13.92 110.56,14.88 110.56,16 C110.56,17.12 110.88,18.08 111.68,18.72 Z M120.96,20.8 L120.96,11.2 L122.4,11.2 L127.04,18.72 L127.04,11.2 L128.32,11.2 L128.32,20.8 L127.04,20.8 L122.08,12.96 L122.08,20.8 L120.96,20.8 Z" id="Shape" stroke="#FFFFFF" stroke-width="0.666666667" fill="#FFFFFF" fill-rule="nonzero"></path>
                <path d="M108.96,34.88 C105.12,34.88 102.08,37.76 102.08,41.76 C102.08,45.6 105.12,48.64 108.96,48.64 C112.8,48.64 115.84,45.76 115.84,41.76 C115.84,37.6 112.8,34.88 108.96,34.88 Z M108.96,45.76 C106.88,45.76 105.12,44 105.12,41.6 C105.12,39.2 106.88,37.44 108.96,37.44 C111.04,37.44 112.8,39.04 112.8,41.6 C112.8,44 111.04,45.76 108.96,45.76 Z M94.08,34.88 C90.24,34.88 87.2,37.76 87.2,41.76 C87.2,45.6 90.24,48.64 94.08,48.64 C97.92,48.64 100.96,45.76 100.96,41.76 C100.96,37.6 97.92,34.88 94.08,34.88 Z M94.08,45.76 C92,45.76 90.24,44 90.24,41.6 C90.24,39.2 92,37.44 94.08,37.44 C96.16,37.44 97.92,39.04 97.92,41.6 C97.92,44 96.16,45.76 94.08,45.76 Z M76.32,36.96 L76.32,39.84 L83.2,39.84 C83.04,41.44 82.4,42.72 81.6,43.52 C80.64,44.48 79.04,45.6 76.32,45.6 C72,45.6 68.8,42.24 68.8,37.92 C68.8,33.6 72.16,30.24 76.32,30.24 C78.56,30.24 80.32,31.2 81.6,32.32 L83.68,30.24 C81.92,28.64 79.68,27.36 76.48,27.36 C70.72,27.36 65.76,32.16 65.76,37.92 C65.76,43.68 70.72,48.48 76.48,48.48 C79.68,48.48 81.92,47.52 83.84,45.44 C85.76,43.52 86.4,40.8 86.4,38.72 C86.4,38.08 86.4,37.44 86.24,36.96 L76.32,36.96 Z M148.96,39.2 C148.32,37.6 146.72,34.88 143.2,34.88 C139.68,34.88 136.8,37.6 136.8,41.76 C136.8,45.6 139.68,48.64 143.52,48.64 C146.56,48.64 148.48,46.72 149.12,45.6 L146.88,44 C146.08,45.12 145.12,45.92 143.52,45.92 C141.92,45.92 140.96,45.28 140.16,43.84 L149.28,40 L148.96,39.2 Z M139.68,41.44 C139.68,38.88 141.76,37.44 143.2,37.44 C144.32,37.44 145.44,38.08 145.76,38.88 L139.68,41.44 Z M132.16,48 L135.2,48 L135.2,28 L132.16,28 L132.16,48 Z M127.36,36.32 C126.56,35.52 125.28,34.72 123.68,34.72 C120.32,34.72 117.12,37.76 117.12,41.6 C117.12,45.44 120.16,48.32 123.68,48.32 C125.28,48.32 126.56,47.52 127.2,46.72 L127.36,46.72 L127.36,47.68 C127.36,50.24 125.92,51.68 123.68,51.68 C121.92,51.68 120.64,50.4 120.32,49.28 L117.76,50.4 C118.56,52.16 120.48,54.4 123.84,54.4 C127.36,54.4 130.24,52.32 130.24,47.36 L130.24,35.2 L127.36,35.2 L127.36,36.32 Z M123.84,45.76 C121.76,45.76 120,44 120,41.6 C120,39.2 121.76,37.44 123.84,37.44 C125.92,37.44 127.52,39.2 127.52,41.6 C127.52,44 125.92,45.76 123.84,45.76 Z M162.88,28 L155.68,28 L155.68,48 L158.72,48 L158.72,40.48 L162.88,40.48 C166.24,40.48 169.44,38.08 169.44,34.24 C169.44,30.4 166.24,28 162.88,28 Z M163.04,37.6 L158.72,37.6 L158.72,30.72 L163.04,30.72 C165.28,30.72 166.56,32.64 166.56,34.08 C166.4,35.84 165.12,37.6 163.04,37.6 Z M181.44,34.72 C179.2,34.72 176.96,35.68 176.16,37.76 L178.88,38.88 C179.52,37.76 180.48,37.44 181.6,37.44 C183.2,37.44 184.64,38.4 184.8,40 L184.8,40.16 C184.32,39.84 183.04,39.36 181.76,39.36 C178.88,39.36 176,40.96 176,43.84 C176,46.56 178.4,48.32 180.96,48.32 C183.04,48.32 184,47.36 184.8,46.4 L184.96,46.4 L184.96,48 L187.84,48 L187.84,40.32 C187.52,36.8 184.8,34.72 181.44,34.72 Z M181.12,45.76 C180.16,45.76 178.72,45.28 178.72,44 C178.72,42.4 180.48,41.92 181.92,41.92 C183.2,41.92 183.84,42.24 184.64,42.56 C184.32,44.48 182.72,45.76 181.12,45.76 Z M197.92,35.2 L194.56,43.84 L194.4,43.84 L190.88,35.2 L187.68,35.2 L192.96,47.36 L189.92,54.08 L192.96,54.08 L201.12,35.2 L197.92,35.2 Z M171.04,48 L174.08,48 L174.08,28 L171.04,28 L171.04,48 Z" id="Shape" fill="#FFFFFF" fill-rule="nonzero"></path>
                <g id="Group" transform="translate(16.000000, 11.200000)">
                    <path d="M0.64,0.8 C0.16,1.28 0,2.08 0,3.04 L0,38.4 C0,39.36 0.32,40.16 0.8,40.64 L0.96,40.8 L20.8,20.96 L20.8,20.64 L0.64,0.8 Z" id="Path" fill="url(#linearGradient-1)"></path>
                    <path d="M27.2,27.68 L20.64,21.12 L20.64,20.64 L27.2,14.08 L27.36,14.24 L35.2,18.72 C37.44,20 37.44,22.08 35.2,23.36 L27.2,27.68 Z" id="Path" fill="url(#linearGradient-2)"></path>
                    <path d="M27.36,27.52 L20.64,20.8 L0.64,40.8 C1.44,41.6 2.56,41.6 4,40.96 L27.36,27.52" id="Path" fill="url(#linearGradient-3)"></path>
                    <path d="M27.36,14.08 L4,0.8 C2.56,-1.11022302e-16 1.44,0.16 0.64,0.96 L20.64,20.8 L27.36,14.08 Z" id="Path" fill="url(#linearGradient-4)"></path>
                    <path d="M27.2,27.36 L4,40.48 C2.72,41.28 1.6,41.12 0.8,40.48 L0.64,40.64 L0.8,40.8 C1.6,41.44 2.72,41.6 4,40.8 L27.2,27.36 Z" id="Path" fill="#000000" opacity="0.2"></path>
                    <path d="M0.64,40.48 C0.16,40 0,39.2 0,38.24 L0,38.4 C0,39.36 0.32,40.16 0.8,40.64 L0.8,40.48 L0.64,40.48 Z M35.2,22.88 L27.2,27.36 L27.36,27.52 L35.2,23.04 C36.32,22.4 36.8,21.6 36.8,20.8 C36.8,21.6 36.16,22.24 35.2,22.88 Z" id="Shape" fill="#000000" fill-rule="nonzero" opacity="0.12"></path>
                    <path d="M4,0.96 L35.2,18.72 C36.16,19.36 36.8,20 36.8,20.8 C36.8,20 36.32,19.2 35.2,18.56 L4,0.8 C1.76,-0.48 0,0.48 0,3.04 L0,3.2 C0,0.8 1.76,-0.32 4,0.96 Z" id="Path" fill="#FFFFFF" opacity="0.25"></path>
                </g>
            </g>
        </g>
    </g>
</svg>