<?xml version="1.0" encoding="UTF-8"?>
<svg width="48px" height="48px" viewBox="0 0 48 48" version="1.1" xmlns="http://www.w3.org/2000/svg" xmlns:xlink="http://www.w3.org/1999/xlink">
    <!-- Generator: Sketch 52.5 (67469) - http://www.bohemiancoding.com/sketch -->
    <title>icons/reddit</title>
    <desc>Created with Sketch.</desc>
    <g id="icons/reddit" stroke="none" stroke-width="1" fill="none" fill-rule="evenodd">
        <g id="reddit">
            <g id="Artwork">
                <g transform="translate(0.289179, 0.289179)">
                    <g id="g7">
                        <circle id="circle9" fill="#FF4500" cx="23.6967824" cy="23.6967824" r="23.5864392"></circle>
                        <path d="M39.4210779,23.6967851 C39.4210779,21.7933181 37.8762351,20.2484753 35.9727681,20.2484753 C35.0348278,20.2484753 34.2072335,20.6070995 33.6003309,21.214002 C31.2554802,19.5312268 28.0002758,18.4277677 24.4140336,18.2898353 L25.9864628,10.9242455 L31.0899614,12.0001182 C31.1451343,13.2966827 32.221007,14.3449689 33.545158,14.3449689 C34.8968954,14.3449689 36.0003546,13.2415097 36.0003546,11.8897723 C36.0003546,10.5380348 34.8968954,9.43457568 33.545158,9.43457568 C32.5796312,9.43457568 31.7520369,9.98630525 31.3658262,10.8138996 L25.6554251,9.60009455 C25.4899062,9.57250807 25.3243874,9.60009455 25.186455,9.68285399 C25.0485226,9.76561342 24.9657631,9.90354582 24.9105902,10.0690647 L23.172642,18.2898353 C19.5036404,18.4001812 16.2208494,19.4760539 13.8484123,21.214002 C13.2415097,20.634686 12.3863289,20.2484753 11.4759751,20.2484753 C9.57250807,20.2484753 8.02766527,21.7933181 8.02766527,23.6967851 C8.02766527,25.1036955 8.85525963,26.2899141 10.0690647,26.8416437 C10.0138917,27.1726814 9.98630525,27.5313056 9.98630525,27.8899299 C9.98630525,33.1865338 16.13809,37.4624379 23.7519581,37.4624379 C31.3658262,37.4624379 37.5176109,33.1865338 37.5176109,27.8899299 C37.5176109,27.5313056 37.4900244,27.2002679 37.4348515,26.8692302 C38.5658971,26.3175006 39.4210779,25.1036955 39.4210779,23.6967851 Z M15.8346387,26.1519817 C15.8346387,24.8002443 16.9380979,23.6967851 18.2898353,23.6967851 C19.6415728,23.6967851 20.7450319,24.8002443 20.7450319,26.1519817 C20.7450319,27.5037192 19.6415728,28.6071783 18.2898353,28.6071783 C16.9380979,28.6071783 15.8346387,27.5037192 15.8346387,26.1519817 Z M29.5451186,32.6348042 C27.8623434,34.3175794 24.6623119,34.4279253 23.7243716,34.4279253 C22.7864313,34.4279253 19.5588133,34.2899929 17.9036246,32.6348042 C17.6553463,32.3865259 17.6553463,31.9727287 17.9036246,31.7244504 C18.1519029,31.4761721 18.5657001,31.4761721 18.8139784,31.7244504 C19.8622646,32.7727366 22.1243558,33.1589473 23.7519581,33.1589473 C25.3795603,33.1589473 27.6140651,32.7727366 28.6899377,31.7244504 C28.938216,31.4761721 29.3520132,31.4761721 29.6002915,31.7244504 C29.7933969,32.0003152 29.7933969,32.3865259 29.5451186,32.6348042 Z M29.1037349,28.6071783 C27.7519975,28.6071783 26.6485383,27.5037192 26.6485383,26.1519817 C26.6485383,24.8002443 27.7519975,23.6967851 29.1037349,23.6967851 C30.4554724,23.6967851 31.5589315,24.8002443 31.5589315,26.1519817 C31.5589315,27.5037192 30.4554724,28.6071783 29.1037349,28.6071783 Z" id="path11" fill="#FFFFFF" fill-rule="nonzero"></path>
                    </g>
                </g>
            </g>
        </g>
    </g>
</svg>