<?xml version="1.0" encoding="UTF-8"?>
<svg width="64px" height="64px" viewBox="0 0 64 64" version="1.1" xmlns="http://www.w3.org/2000/svg" xmlns:xlink="http://www.w3.org/1999/xlink">
    <!-- Generator: Sketch 52.5 (67469) - http://www.bohemiancoding.com/sketch -->
    <title>icons/64px/1</title>
    <desc>Created with Sketch.</desc>
    <g id="icons/64px/1" stroke="none" stroke-width="1" fill="none" fill-rule="evenodd">
        <g id="1" fill="#F18000">
            <path d="M30.1427636,40.5 C30.1427636,43.0628571 28.05893,45.1428571 25.4996406,45.1428571 C22.9403512,45.1428571 20.8565175,43.0628571 20.8565175,40.5 C20.8565175,37.9371429 22.9403512,35.8571429 25.4996406,35.8571429 C28.05893,35.8571429 30.1427636,37.9371429 30.1427636,40.5 L30.1427636,40.5 Z M44.737028,33.9257143 L40.9110946,27.5 C40.4430678,26.7385714 39.5274439,26.3857143 38.6099628,26.72 L34.3382896,28.3914286 C33.543387,27.8342857 32.7169111,27.37 31.8272887,26.9614286 L31.1846805,22.5228571 C31.0193853,21.6685714 30.2170536,21 29.318145,21 L21.6811362,21 C20.7747986,21 19.9724669,21.6685714 19.8071717,22.5971429 L19.1719925,26.9985714 C18.2730839,27.4071429 17.4336072,27.8714286 16.6628488,28.4285714 L12.3707459,26.7385714 C11.5331265,26.4414286 10.5580706,26.7571429 10.0807576,27.5371429 L6.26968219,33.9442857 C5.79051189,34.7242857 5.96880782,35.7457143 6.71542201,36.3585714 L10.3277717,39.1257143 C10.2757688,39.6085714 10.2497673,40.0542857 10.2497673,40.5 C10.2497673,40.9457143 10.2757688,41.41 10.329629,41.9114286 L6.68756327,44.6971429 C5.96880782,45.2914286 5.79051189,46.3128571 6.2622532,47.0742857 L10.0881866,53.5185714 C10.5524989,54.2614286 11.4718373,54.6328571 12.3893184,54.2985714 L16.6609916,52.6271429 C17.4558942,53.1842857 18.2842274,53.6485714 19.1719925,54.0571429 L19.8127435,58.4771429 C19.9798959,59.35 20.7822276,60 21.6811362,60 L29.318145,60 C30.2226254,60 31.0268143,59.3314286 31.1921094,58.4214286 L31.8272887,54.02 C32.7261973,53.6114286 33.5656739,53.1285714 34.3364324,52.59 L38.6303926,54.28 C38.8439762,54.3542857 39.0668461,54.3914286 39.2915733,54.3914286 C39.9583258,54.3914286 40.563789,54.0571429 40.9185236,53.4814286 L44.729599,47.0742857 C45.2087693,46.2942857 45.0304734,45.2542857 44.2838592,44.6414286 L40.6715095,41.8928571 C40.7235124,41.41 40.7495139,40.9457143 40.7495139,40.5 C40.7495139,40.0728571 40.7235124,39.6085714 40.6696522,39.0885714 L44.3098607,36.3214286 C45.0304734,35.7271429 45.2106265,34.6871429 44.737028,33.9257143 L44.737028,33.9257143 Z" id="Fill-936"></path>
            <path d="M50.8330239,15 C50.8330239,16.0083333 50.0097424,16.8333333 48.9994348,16.8333333 C47.9891273,16.8333333 47.1658458,16.0083333 47.1658458,15 C47.1658458,13.9916667 47.9891273,13.1666667 48.9994348,13.1666667 C50.0097424,13.1666667 50.8330239,13.9916667 50.8330239,15 L50.8330239,15 Z M59.4490589,16.9433333 L57.6521416,15.5866667 C57.6686439,15.385 57.6796455,15.2016667 57.6796455,15 C57.6796455,14.7983333 57.6741447,14.615 57.659476,14.4316667 L59.4747292,13.0383333 C59.997302,12.58 60.1329876,11.8466667 59.7882729,11.2233333 L57.7291524,7.75833333 C57.4027735,7.17166667 56.8325273,6.84166667 55.9524046,7.135 L53.8474443,7.96 C53.4972288,7.72166667 53.1488469,7.53833333 52.7931306,7.37333333 L52.4814205,5.265 C52.4190784,4.55 51.7993253,4 51.0713905,4 L46.93298,4 C46.2398833,4 45.6292982,4.51333333 45.5082813,5.21 L45.1874032,7.37333333 C44.813351,7.55666667 44.4631355,7.75833333 44.1422574,7.96 L42.002459,7.11666667 C41.9034452,7.08 41.6210725,7.04333333 41.5165579,7.04333333 C41.0196552,7.04333333 40.5594244,7.28166667 40.2660501,7.74 L38.1849266,11.2416667 C37.8383782,11.865 37.9887325,12.635 38.553478,13.075 L40.3412273,14.4316667 C40.3302258,14.615 40.324725,14.8166667 40.324725,15 C40.324725,15.2016667 40.3302258,15.385 40.3412273,15.5683333 L38.5094718,16.98 C37.9832318,17.4383333 37.8493798,18.1716667 38.1959281,18.7766667 L40.253215,22.2416667 C40.5025831,22.7 40.9811499,22.975 41.5055564,22.975 C41.6650786,22.975 41.8246008,22.9383333 42.0317964,22.8833333 L44.1367567,22.0583333 C44.4851386,22.2783333 44.8353541,22.48 45.1892368,22.645 L45.5119485,24.8266667 C45.6311317,25.505 46.2288818,26 46.93298,26 L51.0713905,26 C51.7644872,26 52.3750723,25.505 52.4960892,24.8083333 L52.8151337,22.6266667 C53.192853,22.4433333 53.5375678,22.26 53.8511115,22.0583333 L56.0019115,22.8833333 C56.1009253,22.92 56.383298,22.975 56.485979,22.975 C56.9847152,22.975 57.4431125,22.7183333 57.7383203,22.2783333 L59.8212775,18.7583333 C60.1531571,18.1716667 60.0193051,17.42 59.4490589,16.9433333 L59.4490589,16.9433333 Z" id="Fill-937"></path>
        </g>
    </g>
</svg>