<?xml version="1.0" encoding="UTF-8"?>
<svg width="64px" height="64px" viewBox="0 0 64 64" version="1.1" xmlns="http://www.w3.org/2000/svg" xmlns:xlink="http://www.w3.org/1999/xlink">
    <!-- Generator: Sketch 52.5 (67469) - http://www.bohemiancoding.com/sketch -->
    <title>icons/64px/13</title>
    <desc>Created with Sketch.</desc>
    <g id="icons/64px/13" stroke="none" stroke-width="1" fill="none" fill-rule="evenodd">
        <g id="13" fill="#F18000">
            <g id="eye-close-up" transform="translate(4.000000, 14.000000)">
                <path d="M27.9744909,0.0318442623 C15.6340836,0.0318442623 4.9982851,7.38331967 0.112540193,17.9920082 C-0.0375133976,18.3134836 -0.0375133976,18.6895492 0.112540193,19.0170902 C4.9982851,29.625718 15.6341436,36.9772541 27.9744909,36.9772541 C40.3148382,36.9772541 50.9506967,29.6257787 55.8364416,19.0170902 C55.9864952,18.6956148 55.9864952,18.3195492 55.8364416,17.9920082 C50.9506967,7.38331967 40.3148982,0.0318442623 27.9744909,0.0318442623 Z M27.9744909,31.2514131 C21.0060021,31.2514131 15.3639871,25.5436475 15.3639871,18.507582 C15.3639871,11.4654508 21.0120043,5.76381148 27.9744909,5.76381148 C34.9429796,5.76381148 40.5849946,11.4715164 40.5849946,18.507582 C40.5849946,25.5436475 34.9369775,31.2514131 27.9744909,31.2514131 Z" id="Shape" fill-rule="nonzero"></path>
                <ellipse id="Oval" cx="27.9744909" cy="18.5015164" rx="8.07288317" ry="8.15819672"></ellipse>
            </g>
        </g>
    </g>
</svg>