<?xml version="1.0" encoding="UTF-8"?>
<svg width="64px" height="64px" viewBox="0 0 64 64" version="1.1" xmlns="http://www.w3.org/2000/svg" xmlns:xlink="http://www.w3.org/1999/xlink">
    <!-- Generator: Sketch 52.5 (67469) - http://www.bohemiancoding.com/sketch -->
    <title>icons/64px/14</title>
    <desc>Created with Sketch.</desc>
    <g id="icons/64px/14" stroke="none" stroke-width="1" fill="none" fill-rule="evenodd">
        <g id="14" fill="#F18000">
            <path d="M53,50.1578947 C53,50.6294737 52.616,51 52.1428571,51 L17.8571429,51 C17.384,51 17,50.6294737 17,50.1578947 L17,48.4736842 C17,48.0189474 17.384,47.6315789 17.8571429,47.6315789 L47,47.6315789 C48.4177143,47.6315789 49.5714286,46.5031579 49.5714286,45.1052632 L49.5714286,19.8421053 C49.5714286,19.3873684 49.9554286,19 50.4285714,19 L52.1428571,19 C52.616,19 53,19.3873684 53,19.8421053 L53,50.1578947 Z M48,45.1578947 C48,45.6294737 47.616,46 47.1428571,46 L12.8571429,46 C12.384,46 12,45.6294737 12,45.1578947 L12,43.4736842 C12,43.0189474 12.384,42.6315789 12.8571429,42.6315789 L42,42.6315789 C43.4177143,42.6315789 44.5714286,41.5031579 44.5714286,40.1052632 L44.5714286,14.8421053 C44.5714286,14.3873684 44.9554286,14 45.4285714,14 L47.1428571,14 C47.616,14 48,14.3873684 48,14.8421053 L48,45.1578947 Z M41.2857143,8.7 L8.71428571,8.7 L8.71428571,37.345 L17.4297143,24.391 C17.5668571,24.187 17.7828571,24.051 18.0262857,24.017 C18.2697143,23.983 18.5148571,24.051 18.7,24.204 L23.908,28.641 L31.1097143,15.942 C31.2708571,15.653 31.5811429,15.483 31.9051429,15.5 C32.2325714,15.517 32.5205714,15.721 32.6474286,16.027 L41.2857143,36.359 L41.2857143,8.7 Z M41.9714286,41 L7.85714286,41 C7.71142857,41 7.58114286,40.966 7.46114286,40.898 C7.42685714,40.881 7.40114286,40.864 7.37028571,40.83 C7.28114286,40.779 7.20742857,40.694 7.14742857,40.609 C7.13542857,40.592 7.11314286,40.575 7.10114286,40.558 C7.096,40.541 7.09942857,40.541 7.09428571,40.524 C7.03771429,40.405 7,40.286 7,40.15 L7,7.85 C7,7.391 7.384,7 7.85714286,7 L42.1428571,7 C42.616,7 43,7.391 43,7.85 L43,40.15 C43,40.626 42.616,41 42.1428571,41 L42.0057143,41 L41.9714286,41 Z M57.1428571,27 C57.616,27 58,27.3923529 58,27.8529412 L58,55.1470588 C58,55.6247059 57.616,56 57.1428571,56 L22.8571429,56 C22.384,56 22,55.6247059 22,55.1470588 L22,53.4411765 C22,52.9805882 22.384,52.5882353 22.8571429,52.5882353 L52,52.5882353 C53.4177143,52.5882353 54.5714286,51.4452941 54.5714286,50.0294118 L54.5714286,27.8529412 C54.5714286,27.3923529 54.9554286,27 55.4285714,27 L57.1428571,27 Z M17.5,21 C15.0196,21 13,18.984 13,16.5 C13,14.016 15.0196,12 17.5,12 C19.9804,12 22,14.016 22,16.5 C22,18.984 19.9804,21 17.5,21 Z" id="Combined-Shape"></path>
        </g>
    </g>
</svg>