<?xml version="1.0" encoding="UTF-8"?>
<svg width="64px" height="64px" viewBox="0 0 64 64" version="1.1" xmlns="http://www.w3.org/2000/svg" xmlns:xlink="http://www.w3.org/1999/xlink">
    <!-- Generator: Sketch 52.5 (67469) - http://www.bohemiancoding.com/sketch -->
    <title>icons/64px/2</title>
    <desc>Created with Sketch.</desc>
    <g id="icons/64px/2" stroke="none" stroke-width="1" fill="none" fill-rule="evenodd">
        <g id="2" fill="#F18000">
            <path d="M58.5794728,26.8240159 C58.9844661,27.073699 59.1188665,27.6087342 58.8859058,28.0189278 L42.7578539,56.5541374 C42.6359975,56.7681514 42.4335009,56.9108275 42.1951641,56.9821655 C42.1234839,57 42.0500116,57 41.9765394,57 C41.8062988,57 41.6414343,56.964331 41.4962818,56.857324 L27.4147006,47.940071 C27.0795955,47.7438914 26.925483,47.3336978 27.0347953,46.9413386 C27.1476917,46.566814 27.4971328,46.2992964 27.8967501,46.2992964 L43.7685452,46.2992964 C45.2505339,46.2992964 46.4565538,45.1043845 46.4565538,43.6241205 L46.4565538,20.8851254 C46.4565538,20.5641043 46.6339624,20.2609177 46.9188913,20.1182416 C47.2020282,19.9577311 47.5532613,19.9577311 47.8274382,20.1360761 L58.5794728,26.8240159 Z M42.2272727,9.8 L6.77272727,9.8 L6.77272727,40.13 L15.7852727,26.414 C15.9377273,26.18 16.1894545,26.018 16.466,26 C16.7443182,26 17.0084545,26.108 17.1892727,26.306 L22.5251818,32.498 L29.9121364,17.504 C30.0628182,17.198 30.3695,17 30.7045455,17 L30.7063182,17 C31.0431364,17 31.3498182,17.198 31.4987273,17.504 L42.2272727,39.608 L42.2272727,9.8 Z M42.9381364,44 L5.88636364,44 C5.73568182,44 5.60095455,43.964 5.47509091,43.892 C5.44318182,43.874 5.41481818,43.856 5.38468182,43.82 C5.29072727,43.766 5.21272727,43.676 5.15068182,43.586 C5.13827273,43.568 5.117,43.55 5.10636364,43.532 C5.10104545,43.514 5.10281818,43.514 5.09927273,43.496 C5.04077273,43.388 5,43.244 5,43.1 L5,8.9 C5,8.414 5.39709091,8 5.88636364,8 L43.1136364,8 C43.6029091,8 44,8.414 44,8.9 L44,43.1 C44,43.604 43.6029091,44 43.1136364,44 L42.9718182,44 L42.9381364,44 Z M16.5,23 C14.0178,23 12,20.984 12,18.5 C12,16.016 14.0178,14 16.5,14 C18.9822,14 21,16.016 21,18.5 C21,20.984 18.9822,23 16.5,23 Z" id="Combined-Shape"></path>
        </g>
    </g>
</svg>