<?xml version="1.0" encoding="UTF-8"?>
<svg width="64px" height="64px" viewBox="0 0 64 64" version="1.1" xmlns="http://www.w3.org/2000/svg" xmlns:xlink="http://www.w3.org/1999/xlink">
    <!-- Generator: Sketch 52.5 (67469) - http://www.bohemiancoding.com/sketch -->
    <title>icons/64px/3</title>
    <desc>Created with Sketch.</desc>
    <g id="icons/64px/3" stroke="none" stroke-width="1" fill="none" fill-rule="evenodd">
        <g id="3" fill="#F18000">
            <path d="M32,61 C15.9837423,61 3,48.0162577 3,32 C3,15.9837423 15.9837423,3 32,3 C48.0162577,3 61,15.9837423 61,32 C61,48.0162577 48.0162577,61 32,61 Z M32,57 C45.8071187,57 57,45.8071187 57,32 C57,18.1928813 45.8071187,7 32,7 C18.1928813,7 7,18.1928813 7,32 C7,45.8071187 18.1928813,57 32,57 Z" id="Oval" fill-rule="nonzero"></path>
            <path d="M27.92,40 L26.6,36.736 L18.824,36.736 L17.504,40 L13.592,40 L20.888,23.2 L24.8,23.2 L31.976,40 L27.92,40 Z M20.072,33.688 L25.376,33.688 L22.736,27.16 L20.072,33.688 Z M40.856,23.2 C42.5680086,23.2 44.0959933,23.5559964 45.44,24.268 C46.7840067,24.9800036 47.8279963,25.9719936 48.572,27.244 C49.3160037,28.5160064 49.688,29.9679918 49.688,31.6 C49.688,33.2320082 49.3080038,34.6839936 48.548,35.956 C47.7879962,37.2280064 46.7280068,38.2199964 45.368,38.932 C44.0079932,39.6440036 42.4560087,40 40.712,40 L33.728,40 L33.728,23.2 L40.856,23.2 Z M40.952,36.808 C41.8800046,36.808 42.7159963,36.5880022 43.46,36.148 C44.2040037,35.7079978 44.7839979,35.0960039 45.2,34.312 C45.6160021,33.5279961 45.824,32.632005 45.824,31.624 C45.824,30.615995 45.6040022,29.712004 45.164,28.912 C44.7239978,28.111996 44.1240038,27.4920022 43.364,27.052 C42.6039962,26.6119978 41.7440048,26.392 40.784,26.392 L37.52,26.392 L37.52,36.808 L40.952,36.808 Z" id="AD" fill-rule="evenodd"></path>
            <rect id="Rectangle" fill-rule="evenodd" transform="translate(32.000000, 33.000000) rotate(45.000000) translate(-32.000000, -33.000000) " x="30" y="5" width="4" height="56"></rect>
        </g>
    </g>
</svg>