<?xml version="1.0" encoding="UTF-8"?>
<svg width="64px" height="64px" viewBox="0 0 64 64" version="1.1" xmlns="http://www.w3.org/2000/svg" xmlns:xlink="http://www.w3.org/1999/xlink">
    <!-- Generator: Sketch 52.5 (67469) - http://www.bohemiancoding.com/sketch -->
    <title>icons/64px/5</title>
    <desc>Created with Sketch.</desc>
    <g id="icons/64px/5" stroke="none" stroke-width="1" fill="none" fill-rule="evenodd">
        <g id="5" fill="#F18000" fill-rule="nonzero">
            <path d="M40.5709677,12.5806452 C33.1306452,5.14032258 21.0209677,5.14032258 13.5806452,12.5806452 C6.14193548,20.0225806 6.14193548,32.1306452 13.5806452,39.5725806 C20.2064516,46.1967742 30.5258065,46.9064516 37.9612903,41.733871 C38.1177419,42.4741935 38.4758065,43.1806452 39.0516129,43.7564516 L49.8870968,54.5919355 C51.466129,56.1677419 54.0177419,56.1677419 55.5887097,54.5919355 C57.166129,53.0145161 57.166129,50.4629032 55.5887097,48.8903226 L44.7532258,38.0516129 C44.1806452,37.4806452 43.4725806,37.1209677 42.7322581,36.9645161 C47.9080645,29.5274194 47.1983871,19.2096774 40.5709677,12.5806452 Z M37.15,36.1516129 C31.5951613,41.7064516 22.5548387,41.7064516 17.0016129,36.1516129 C11.45,30.5967742 11.45,21.5580645 17.0016129,16.0032258 C22.5548387,10.45 31.5951613,10.45 37.15,16.0032258 C42.7048387,21.5580645 42.7048387,30.5967742 37.15,36.1516129 Z" id="Shape"></path>
        </g>
    </g>
</svg>