<?xml version="1.0" encoding="UTF-8"?>
<svg width="64px" height="64px" viewBox="0 0 64 64" version="1.1" xmlns="http://www.w3.org/2000/svg" xmlns:xlink="http://www.w3.org/1999/xlink">
    <!-- Generator: Sketch 52.5 (67469) - http://www.bohemiancoding.com/sketch -->
    <title>icons/64px/6</title>
    <desc>Created with Sketch.</desc>
    <g id="icons/64px/6" stroke="none" stroke-width="1" fill="none" fill-rule="evenodd">
        <g id="6" fill="#F18000">
            <path d="M20.5,23 C18.4444444,20.7395833 16.462963,18.1145833 16,16 L25,16 C24.537037,18.1145833 22.5555556,20.7395833 20.5,23 Z M27.65625,15.875 C28.16375,15.875 28.5625,15.47625 28.5625,14.96875 C28.5625,14.479375 28.16375,14.0625 27.65625,14.0625 L21.3125,14.0625 L21.3125,11.34375 C21.3125,10.854375 20.91375,10.4375 20.40625,10.4375 C19.89875,10.4375 19.5,10.854375 19.5,11.34375 L19.5,14.0625 L13.15625,14.0625 C12.64875,14.0625 12.25,14.479375 12.25,14.96875 C12.25,15.47625 12.64875,15.875 13.15625,15.875 L14.153125,15.875 C14.60625,18.575625 16.944375,21.71125 19.17375,24.158125 C18.01375,25.354375 16.92625,26.35125 16.20125,26.9675 C15.820625,27.29375 15.76625,27.87375 16.0925,28.254375 C16.27375,28.45375 16.5275,28.5625 16.78125,28.5625 C16.980625,28.5625 17.198125,28.49 17.36125,28.345 C17.50625,28.23625 18.81125,27.1125 20.40625,25.48125 C22.00125,27.1125 23.30625,28.23625 23.45125,28.345 C23.614375,28.49 23.81375,28.5625 24.03125,28.5625 C24.285,28.5625 24.53875,28.45375 24.72,28.254375 C25.04625,27.87375 24.991875,27.29375 24.61125,26.9675 C23.88625,26.35125 22.79875,25.354375 21.63875,24.158125 C23.868125,21.71125 26.20625,18.575625 26.659375,15.875 L27.65625,15.875 Z M33.09375,28.5625 L31.28125,28.5625 C29.776875,28.5625 28.5625,29.795 28.5625,31.28125 L28.5625,33.09375 C28.5625,33.60125 28.16375,34 27.65625,34 L5.90625,34 C5.39875,34 5,33.60125 5,33.09375 L5,5.90625 C5,5.416875 5.39875,5 5.90625,5 L33.09375,5 C33.60125,5 34,5.416875 34,5.90625 L34,27.65625 C34,28.16375 33.60125,28.5625 33.09375,28.5625 Z M53.000625,53.508125 C53.45375,53.30875 53.689375,52.783125 53.49,52.33 L46.24,34.205 C45.968125,33.51625 44.844375,33.51625 44.5725,34.205 L37.3225,52.33 C37.123125,52.783125 37.35875,53.30875 37.811875,53.508125 C38.283125,53.689375 38.80875,53.45375 38.99,53.000625 L40.9475,48.125 L49.865,48.125 L51.8225,53.000625 C51.949375,53.345 52.29375,53.5625 52.65625,53.5625 C52.765,53.5625 52.87375,53.544375 53.000625,53.508125 Z M58.09375,30 C58.60125,30 59,30.416875 59,30.90625 L59,58.09375 C59,58.60125 58.60125,59 58.09375,59 L30.90625,59 C30.39875,59 30,58.60125 30,58.09375 L30,30.90625 C30,30.416875 30.39875,30 30.90625,30 L58.09375,30 Z M42,46 L45.5,37 L49,46 L42,46 Z M37.9165694,10.8 C37.4032905,10.8 37,10.404 37,9.9 C37,9.414 37.4032905,9 37.9165694,9 C46.8256235,9 54.1765097,15.606 55.2030674,24.084 L57.4211652,21.87 C57.787793,21.51 58.3743973,21.51 58.7226937,21.87 C59.0893214,22.212 59.0893214,22.788 58.7410251,23.13 L55.1114104,26.73 C55.0197535,26.838 54.8914338,26.892 54.7814455,26.928 C54.7631141,26.946 54.7447827,26.946 54.7264513,26.946 C54.6347944,26.964 54.5431374,27 54.4514805,27 L54.4148177,27 C54.1031842,27 53.8465447,26.856 53.6815623,26.622 L50.1069418,23.148 C49.740314,22.788 49.740314,22.23 50.0886104,21.87 C50.4552381,21.51 51.0235111,21.51 51.3901389,21.87 L53.2782717,23.706 C52.105063,16.416 45.6707461,10.8 37.9165694,10.8 Z M27.1153846,53.1995499 C27.6107692,53.1995499 28,53.6136534 28,54.0997749 C28,54.603901 27.6107692,55 27.1153846,55 C17.6146154,55 9.77692308,48.4103526 8.68,39.9302326 L6.50384615,42.1447862 C6.16769231,42.4868717 5.60153846,42.4868717 5.26538462,42.1447862 C4.91153846,41.7846962 4.91153846,41.2085521 5.26538462,40.8664666 L8.80384615,37.2655664 C8.87461538,37.1755439 8.98076923,37.1215304 9.08692308,37.0675169 C9.29923077,36.9774944 9.54692308,36.9774944 9.75923077,37.0675169 C9.86538462,37.1215304 9.97153846,37.1755439 10.0423077,37.2655664 L13.5807692,40.8664666 C13.9346154,41.2085521 13.9346154,41.7846962 13.5807692,42.1447862 C13.4215385,42.3068267 13.1915385,42.3968492 12.9615385,42.3968492 C12.7315385,42.3968492 12.5015385,42.3068267 12.3423077,42.1447862 L10.5376923,40.3083271 C11.8115385,47.60015 18.7469231,53.1995499 27.1153846,53.1995499 Z" id="Combined-Shape"></path>
        </g>
    </g>
</svg>