<?xml version="1.0" encoding="UTF-8"?>
<svg width="64px" height="64px" viewBox="0 0 64 64" version="1.1" xmlns="http://www.w3.org/2000/svg" xmlns:xlink="http://www.w3.org/1999/xlink">
    <!-- Generator: Sketch 52.5 (67469) - http://www.bohemiancoding.com/sketch -->
    <title>icons/64px/7</title>
    <desc>Created with Sketch.</desc>
    <g id="icons/64px/7" stroke="none" stroke-width="1" fill="none" fill-rule="evenodd">
        <g id="7" fill="#F18000">
            <g transform="translate(4.000000, 4.000000)" id="Star">
                <path d="M27.0693177,42.4892886 L15.1289572,48.7667076 C14.1512681,49.2807092 12.9420138,48.9048162 12.4280121,47.927127 C12.223334,47.5378061 12.1527047,47.0918699 12.2270583,46.6583547 L14.5074643,33.3625678 C14.6187402,32.7137797 14.4036432,32.0517793 13.932271,31.592305 L4.27231645,22.1761765 C3.48134929,21.4051741 3.46516468,20.1389475 4.2361671,19.3479804 C4.54318431,19.0330131 4.94546913,18.8280388 5.38074319,18.7647897 L18.7304721,16.8249606 C19.3818924,16.7303037 19.9450236,16.3211649 20.2363476,15.730878 L26.2065278,3.6339715 C26.6953724,2.64346418 27.8946241,2.23678618 28.8851314,2.72563077 C29.2795566,2.92029125 29.5988117,3.23954629 29.7934722,3.6339715 L35.7636524,15.730878 C36.0549764,16.3211649 36.6181076,16.7303037 37.2695279,16.8249606 L50.6192568,18.7647897 C51.7123465,18.923625 52.4697094,19.9385107 52.3108742,21.0316004 C52.2476252,21.4668745 52.0426508,21.8691593 51.7276836,22.1761765 L42.067729,31.592305 C41.5963568,32.0517793 41.3812598,32.7137797 41.4925357,33.3625678 L43.7729417,46.6583547 C43.9596637,47.7470276 43.228488,48.7809394 42.1398151,48.9676614 C41.7062999,49.0420151 41.2603637,48.9713858 40.8710428,48.7667076 L28.9306823,42.4892886 C28.3480342,42.1829724 27.6519658,42.1829724 27.0693177,42.4892886 Z"></path>
            </g>
        </g>
    </g>
</svg>