<?xml version="1.0" encoding="UTF-8"?>
<svg width="64px" height="64px" viewBox="0 0 64 64" version="1.1" xmlns="http://www.w3.org/2000/svg" xmlns:xlink="http://www.w3.org/1999/xlink">
    <!-- Generator: Sketch 52.5 (67469) - http://www.bohemiancoding.com/sketch -->
    <title>icons/64px/8</title>
    <desc>Created with Sketch.</desc>
    <g id="icons/64px/8" stroke="none" stroke-width="1" fill="none" fill-rule="evenodd">
        <g id="8" fill="#F18000">
            <path d="M34.9966534,20.1157994 C35.0220649,20.3920311 34.9013605,20.6682628 34.6821868,20.8307521 L28.729556,25.3967 L30.1780083,32.8062098 C30.2335958,32.9199522 30.2669483,33.0499436 30.2669483,33.179935 C30.2669483,33.6349049 29.917541,33.9923813 29.4569586,33.9923813 L29.4410764,33.9923813 C29.2647845,33.9923813 29.0884926,33.9420096 28.9455532,33.8136431 L21.5,27.7202963 L14.0544468,33.8136431 C13.7939795,34.0411281 13.4318664,34.057377 13.1459876,33.8786388 C12.8616971,33.6999006 12.7139931,33.3586732 12.7806981,33.0174458 L14.270444,25.3967 L8.31781318,20.8307521 C8.09863947,20.6682628 7.97793511,20.3920311 8.00334655,20.1157994 C8.02875799,19.8395677 8.19393238,19.5795849 8.43851754,19.4658424 L14.2497972,16.4906642 L12.7806981,8.96903687 C12.7139931,8.64405837 12.8616971,8.30283095 13.1459876,8.12409277 C13.4318664,7.9437297 13.7939795,7.95997863 14.0544468,8.17283955 L21.5,14.2661864 L28.9455532,8.17283955 C29.2076088,7.95997863 29.5713101,7.9437297 29.8540124,8.12409277 C30.1383029,8.30283095 30.2860069,8.64405837 30.2193019,8.96903687 L28.7502028,16.4906642 L34.5614825,19.4658424 C34.8060676,19.5795849 34.971242,19.8395677 34.9966534,20.1157994 Z M22.0049751,10 C21.4557214,10 21,9.56 21,9 C21,8.458 21.4358209,8 21.9850746,8 L22.0049751,8 C22.5542289,8 23,8.458 23,9 C23,9.56 22.5542289,10 22.0049751,10 Z M33.0049751,16 C32.4557214,16 32,15.56 32,15 C32,14.46 32.4358209,14 32.9850746,14 L33.0049751,14 C33.5542289,14 34,14.46 34,15 C34,15.56 33.5542289,16 33.0049751,16 Z M9.00497512,16 C8.45572139,16 8,15.56 8,15 C8,14.46 8.4358209,14 8.98507463,14 L9.00497512,14 C9.55422886,14 10,14.46 10,15 C10,15.56 9.55422886,16 9.00497512,16 Z M22.0049751,34 C21.4557214,34 21,33.56 21,33 C21,32.458 21.4358209,32 21.9850746,32 L22.0049751,32 C22.5542289,32 23,32.458 23,33 C23,33.56 22.5542289,34 22.0049751,34 Z M9.00497512,28 C8.45572139,28 8,27.56 8,27 C8,26.458 8.4358209,26 8.98507463,26 L9.00497512,26 C9.55422886,26 10,26.458 10,27 C10,27.56 9.55422886,28 9.00497512,28 Z M44,39.6572843 L39.6539566,44 L31.2348019,35.5719146 C30.9217327,35.250232 30.9217327,34.7516239 31.2348019,34.4299412 C31.8127759,33.8509125 32.0664423,33.0467058 31.9123159,32.2746675 L31.2508568,28.9613362 C31.181821,28.6074853 31.3471858,28.2681101 31.660255,28.0927931 C31.9701133,27.9319517 32.3554293,27.9802041 32.6058847,28.2375503 L44,39.6572843 Z M54.1993407,49.9116719 C55.3179824,51.0315457 56.0495235,52.0094637 55.9973835,53.0820189 C55.9642034,53.7760252 55.6055429,54.3911672 54.9008617,54.9905363 C54.2309407,55.6529968 53.5294196,56 52.8089385,56 C52.0963574,56 51.4106363,55.6687697 50.7122752,54.9747634 L41,45.2744479 L45.2770667,41 L54.1993407,49.9116719 Z" id="Combined-Shape"></path>
        </g>
    </g>
</svg>