<?xml version="1.0" encoding="UTF-8"?>
<svg width="64px" height="64px" viewBox="0 0 64 64" version="1.1" xmlns="http://www.w3.org/2000/svg" xmlns:xlink="http://www.w3.org/1999/xlink">
    <!-- Generator: Sketch 52.5 (67469) - http://www.bohemiancoding.com/sketch -->
    <title>icons/64px/9</title>
    <desc>Created with Sketch.</desc>
    <g id="icons/64px/9" stroke="none" stroke-width="1" fill="none" fill-rule="evenodd">
        <g id="9" fill="#F18000">
            <path d="M53.4133333,13.2158693 C53.7604444,13.3138856 54,13.6242707 54,14 L54,36.6417736 C54,45.6429405 39.8238519,53.68028 32.2346667,55.9673279 C32.1580741,56 32.0798519,56 32,56 C31.9201481,56 31.8419259,56 31.7637037,55.9673279 C24.1761481,53.68028 10,45.6429405 10,36.6417736 L10,14 C10,13.6242707 10.2395556,13.3138856 10.5866667,13.2158693 L31.7718519,7.02450408 C31.9201481,6.99183197 32.0798519,6.99183197 32.2281481,7.02450408 L53.4133333,13.2158693 Z M43.1154536,21.8738708 L29.7408072,35.2872859 L22.8760475,28.401335 C22.1745745,27.680011 21.0126182,27.680011 20.3006388,28.4082932 C19.6005237,29.0917484 19.6005237,30.2464552 20.2988538,30.9644387 L28.455884,39.1414839 C28.829047,39.48625 29.2787316,39.663944 29.7407407,39.663944 C30.20406,39.663944 30.6554362,39.4852107 30.9970514,39.1674748 L45.6977316,24.4318469 C46.400079,23.7134172 46.400079,22.5559205 45.679572,21.8557657 C44.9893893,21.1455886 43.827433,21.1455886 43.1154536,21.8738708 Z" id="Combined-Shape"></path>
        </g>
    </g>
</svg>