<svg xmlns="http://www.w3.org/2000/svg" width="54.001" height="56" viewBox="0 0 54.001 56">
  <g id="Icons" transform="translate(-6 -4)">
    <path id="Fill_936" data-name="Fill 936" d="M23.318,39H15.681a1.918,1.918,0,0,1-1.868-1.523l-.64-4.42a15.89,15.89,0,0,1-2.511-1.43L6.389,33.3a2,2,0,0,1-.687.124,1.9,1.9,0,0,1-1.615-.9L.262,26.074A1.844,1.844,0,0,1,.688,23.7L4.33,20.912A13.086,13.086,0,0,1,4.25,19.5a12.676,12.676,0,0,1,.078-1.374L.716,15.359A1.851,1.851,0,0,1,.27,12.945L4.081,6.537a1.944,1.944,0,0,1,2.291-.8l4.292,1.69A14.405,14.405,0,0,1,13.172,6l.634-4.4A1.916,1.916,0,0,1,15.681,0h7.637a1.92,1.92,0,0,1,1.867,1.523l.643,4.439a15.855,15.855,0,0,1,2.511,1.43L32.61,5.72a2.037,2.037,0,0,1,.7-.127,1.873,1.873,0,0,1,1.6.906l3.826,6.426a1.856,1.856,0,0,1-.427,2.4l-3.64,2.767a13.646,13.646,0,0,1,.08,1.412,13.009,13.009,0,0,1-.078,1.392l3.613,2.749a1.89,1.89,0,0,1,.446,2.433l-3.812,6.407a1.9,1.9,0,0,1-1.626.911,2.019,2.019,0,0,1-.662-.112l-4.294-1.69a15.827,15.827,0,0,1-2.509,1.43l-.635,4.4A1.934,1.934,0,0,1,23.318,39ZM19.5,14.857A4.643,4.643,0,1,0,24.142,19.5,4.648,4.648,0,0,0,19.5,14.857Z" transform="translate(6 21)" fill="#f18000"/>
    <path id="Fill_937" data-name="Fill 937" d="M13.072,22H8.933a1.43,1.43,0,0,1-1.421-1.173l-.323-2.182a9.71,9.71,0,0,1-1.052-.587l-2.105.824a2.018,2.018,0,0,1-.527.092,1.419,1.419,0,0,1-1.252-.733L.2,14.777a1.424,1.424,0,0,1,.313-1.8l1.831-1.411c-.011-.187-.016-.374-.016-.569s.006-.391.016-.568L.553,9.075A1.43,1.43,0,0,1,.185,7.241l2.082-3.5a1.465,1.465,0,0,1,1.25-.7A2.187,2.187,0,0,1,4,3.117l2.14.843a11.258,11.258,0,0,1,1.045-.587L7.509,1.21A1.466,1.466,0,0,1,8.933,0h4.138a1.411,1.411,0,0,1,1.409,1.265l.312,2.108a7.23,7.23,0,0,1,1.054.587l2.105-.825a1.95,1.95,0,0,1,.612-.109,1.293,1.293,0,0,1,1.164.733l2.059,3.465a1.443,1.443,0,0,1-.313,1.815L19.66,10.432c.014.173.02.354.02.568s-.014.421-.027.587l1.8,1.356a1.43,1.43,0,0,1,.373,1.815l-2.083,3.52a1.5,1.5,0,0,1-1.252.7A2.178,2.178,0,0,1,18,18.883l-2.151-.824a9.663,9.663,0,0,1-1.036.568L14.5,20.808A1.441,1.441,0,0,1,13.072,22ZM11,9.167A1.833,1.833,0,1,0,12.833,11,1.836,1.836,0,0,0,11,9.167Z" transform="translate(38 4)" fill="#f18000"/>
  </g>
</svg>
