<?xml version="1.0" encoding="UTF-8"?>
<svg width="64px" height="64px" viewBox="0 0 64 64" version="1.1" xmlns="http://www.w3.org/2000/svg" xmlns:xlink="http://www.w3.org/1999/xlink">
    <!-- Generator: Sketch 52.5 (67469) - http://www.bohemiancoding.com/sketch -->
    <title>icons/64px/11</title>
    <desc>Created with Sketch.</desc>
    <g id="icons/64px/11" stroke="none" stroke-width="1" fill="none" fill-rule="evenodd">
        <g id="11" fill="#F18000">
            <path d="M18.1363524,14.1122624 C18.716382,13.5250035 19.6618881,13.5167143 20.2521248,14.0937134 L22.743184,16.5289042 C22.7450244,16.5307034 22.7468602,16.5325072 22.7486913,16.5343158 C23.3380943,17.1164632 23.3439761,18.0661924 22.7618287,18.6555954 L10.1483009,31.4263323 C9.57348839,32.008309 9.57093278,32.9435166 10.142556,33.5286261 L22.6318717,46.3126014 C23.2035018,46.8977179 23.2009383,47.8329391 22.6261092,48.4149131 L20.2522205,50.8183083 C20.2478743,50.8227085 20.243501,50.8270818 20.2391007,50.8314279 C19.6496977,51.4135753 18.6999684,51.4076935 18.117821,50.8182905 L1.0410954,33.5287287 C0.464040131,32.9444813 0.464040131,32.0048339 1.0410954,31.4205865 L18.1363524,14.1122624 Z M43.6978687,14.1310428 C43.7022207,14.1266366 43.7065999,14.1222573 43.7110062,14.1179054 C44.3004092,13.535758 45.2501384,13.5416398 45.8322858,14.1310428 L62.5619618,31.0692294 C63.3313688,31.848226 63.3313688,33.1010892 62.5619618,33.8800857 L45.832268,50.8182905 C45.8279219,50.8226907 45.8235486,50.8270641 45.8191484,50.8314103 C45.2297551,51.4135675 44.2800258,51.4077016 43.6978685,50.8183083 L41.3296498,48.4206535 C40.7525799,47.8364109 40.7525697,46.896754 41.3296267,46.3124989 L53.9558989,33.5287286 C54.5329491,32.9444804 54.5329467,32.0048371 53.9558935,31.4205918 L41.32962,18.6369505 C40.7525647,18.0527031 40.7525647,17.1130557 41.32962,16.5288083 L43.6978687,14.1310428 Z" id="Combined-Shape"></path>
        </g>
    </g>
</svg>