<?xml version="1.0" encoding="UTF-8"?>
<svg width="64px" height="64px" viewBox="0 0 64 64" version="1.1" xmlns="http://www.w3.org/2000/svg" xmlns:xlink="http://www.w3.org/1999/xlink">
    <!-- Generator: Sketch 52.5 (67469) - http://www.bohemiancoding.com/sketch -->
    <title>icons/64px/12</title>
    <desc>Created with Sketch.</desc>
    <g id="icons/64px/12" stroke="none" stroke-width="1" fill="none" fill-rule="evenodd">
        <g id="12" fill="#F18000">
            <g id="delete" transform="translate(13.000000, 8.000000)">
                <path d="M3,43.5713922 L3,11 L35,11 L35,43.5713922 C35,46.5707594 32.613375,49 29.66675,49 L8.333375,49 C5.386625,49 3,46.5707594 3,43.5713922 Z M19.5237768,40 C25.3066339,40 30,35.2960583 30,29.5000492 C30,23.7040402 25.3066339,19 19.5237768,19 C15.8257143,19 12.5885714,20.9320358 10.7237768,23.8299419 L9.7079095,22.8117643 C9.52030824,22.6237363 9.26561011,22.5180674 9,22.5180674 C8.44771525,22.5180674 8,22.9657827 8,23.5180674 L8,28.4999508 C8,29.0522355 8.44771525,29.4999508 9,29.4999508 L13.9651755,29.4999508 C14.2305373,29.4999508 14.4850183,29.3944788 14.6725787,29.206761 C15.0629392,28.816073 15.0626738,28.1829081 14.6719857,27.7925476 L13.0284732,26.1504127 C14.2437768,23.7773762 16.6741875,22.1499065 19.5132679,22.1499065 C23.5675536,22.1499065 26.8466339,25.4364444 26.8466339,29.4999508 C26.8466339,33.5634571 23.5675536,36.8499951 19.5132679,36.8499951 C17.0304107,36.8499951 14.8409196,35.6005259 13.5104107,33.6999902 L9.92755357,33.6999902 C11.5514286,37.4064631 15.2285714,40 19.5237768,40 Z" id="Combined-Shape"></path>
                <path d="M28.0630786,2.68621961 L25.9582002,0.333273582 C25.7684935,0.121209359 25.497432,1.94613332e-15 25.2128976,1.99840144e-15 L12.6019722,-3.33066907e-16 C12.3174378,2.24635869e-16 12.0463763,0.121209359 11.8566697,0.333273582 L9.7517912,2.68621961 C9.56208459,2.89828384 9.29102307,3.0194932 9.00648865,3.0194932 L1,3.0194932 C0.44771525,3.0194932 -6.76353751e-17,3.46720845 0,4.0194932 L0,8 L38,8 L38,4.0194932 C38,3.46720845 37.5522847,3.0194932 37,3.0194932 L28.8083812,3.0194932 C28.5238468,3.0194932 28.2527852,2.89828384 28.0630786,2.68621961 Z" id="Path"></path>
            </g>
        </g>
    </g>
</svg>