<?xml version="1.0" encoding="UTF-8"?>
<svg width="64px" height="64px" viewBox="0 0 64 64" version="1.1" xmlns="http://www.w3.org/2000/svg" xmlns:xlink="http://www.w3.org/1999/xlink">
    <!-- Generator: Sketch 52.5 (67469) - http://www.bohemiancoding.com/sketch -->
    <title>icons/64px/15</title>
    <desc>Created with Sketch.</desc>
    <g id="icons/64px/15" stroke="none" stroke-width="1" fill="none" fill-rule="evenodd">
        <g id="15" fill="#F18000" fill-rule="nonzero">
            <path d="M31.624,8 C18.578,8 8,18.578 8,31.624 C8,44.67 18.578,55.25 31.624,55.25 C44.67,55.25 55.25,44.67 55.25,31.624 C55.25,18.578 44.67,8 31.624,8 Z M36.542,44.614 C35.326,45.094 34.358,45.458 33.632,45.71 C32.908,45.962 32.066,46.088 31.108,46.088 C29.636,46.088 28.49,45.728 27.674,45.01 C26.858,44.292 26.452,43.382 26.452,42.276 C26.452,41.846 26.482,41.406 26.542,40.958 C26.604,40.51 26.702,40.006 26.836,39.44 L28.358,34.064 C28.492,33.548 28.608,33.058 28.7,32.602 C28.792,32.142 28.836,31.72 28.836,31.336 C28.836,30.652 28.694,30.172 28.412,29.902 C28.126,29.632 27.588,29.5 26.786,29.5 C26.394,29.5 25.99,29.558 25.576,29.68 C25.166,29.806 24.81,29.92 24.518,30.032 L24.92,28.376 C25.916,27.97 26.87,27.622 27.78,27.334 C28.69,27.042 29.55,26.898 30.36,26.898 C31.822,26.898 32.95,27.254 33.744,27.958 C34.534,28.664 34.932,29.582 34.932,30.71 C34.932,30.944 34.904,31.356 34.85,31.944 C34.796,32.534 34.694,33.072 34.546,33.566 L33.032,38.926 C32.908,39.356 32.798,39.848 32.698,40.398 C32.6,40.948 32.552,41.368 32.552,41.65 C32.552,42.362 32.71,42.848 33.03,43.106 C33.346,43.364 33.9,43.494 34.684,43.494 C35.054,43.494 35.468,43.428 35.936,43.3 C36.4,43.172 36.736,43.058 36.948,42.96 L36.542,44.614 Z M36.274,22.858 C35.568,23.514 34.718,23.842 33.724,23.842 C32.732,23.842 31.876,23.514 31.164,22.858 C30.456,22.202 30.098,21.404 30.098,20.472 C30.098,19.542 30.458,18.742 31.164,18.08 C31.876,17.416 32.732,17.086 33.724,17.086 C34.718,17.086 35.57,17.416 36.274,18.08 C36.98,18.742 37.334,19.542 37.334,20.472 C37.334,21.406 36.98,22.202 36.274,22.858 Z" id="Shape"></path>
        </g>
    </g>
</svg>