<svg xmlns="http://www.w3.org/2000/svg" width="47" height="42.999" viewBox="0 0 47 42.999">
  <g id="Icons" transform="translate(-12 -14)">
    <path id="Combined_Shape" data-name="Combined Shape" d="M36.5,48.857,22.415,39.94a.877.877,0,0,1-.38-1A.905.905,0,0,1,22.9,38.3H38.768a2.682,2.682,0,0,0,2.688-2.676V12.885a.857.857,0,0,1,.463-.767.872.872,0,0,1,.908.018L53.58,18.824a.893.893,0,0,1,.306,1.194L37.758,48.554a.83.83,0,0,1-.781.445A.785.785,0,0,1,36.5,48.857ZM7,10.5A4.5,4.5,0,1,1,11.5,15,4.5,4.5,0,0,1,7,10.5Z" transform="translate(5 8)" fill="#f18000"/>
  </g>
</svg>
