<svg xmlns="http://www.w3.org/2000/svg" width="58" height="58" viewBox="0 0 58 58">
  <g id="Icons" transform="translate(-3 -3)">
    <path id="Oval" d="M29,58A29.007,29.007,0,0,1,17.712,2.279,29.007,29.007,0,0,1,40.288,55.721,28.819,28.819,0,0,1,29,58ZM29,4A25,25,0,1,0,54,29,25.029,25.029,0,0,0,29,4Z" transform="translate(3 3)" fill="#f18000"/>
    <path id="AD" d="M3.912,16.8H0L7.3,0h3.911l7.176,16.8-4.055,0-1.32-3.264H5.232L3.912,16.8ZM9.144,3.96,6.48,10.488h5.3ZM27.12,16.8H20.136V0h7.128a9.689,9.689,0,0,1,4.585,1.068A7.785,7.785,0,0,1,34.98,4.044,8.514,8.514,0,0,1,36.1,8.4a8.367,8.367,0,0,1-1.14,4.356,7.906,7.906,0,0,1-3.18,2.976A9.935,9.935,0,0,1,27.12,16.8ZM23.928,3.192V13.608H27.36a4.856,4.856,0,0,0,2.508-.66,4.6,4.6,0,0,0,1.74-1.836,5.675,5.675,0,0,0,.624-2.688,5.557,5.557,0,0,0-.66-2.712,4.764,4.764,0,0,0-1.8-1.86,5.075,5.075,0,0,0-2.58-.66Z" transform="translate(13.592 23.2)" fill="#f18000"/>
    <rect id="Rectangle" width="4" height="56" transform="translate(50.385 11.787) rotate(45)" fill="#f18000"/>
  </g>
</svg>
