<svg xmlns="http://www.w3.org/2000/svg" width="48.77" height="48.773" viewBox="0 0 48.77 48.773">
  <g id="Icons" transform="translate(-8.002 -7)">
    <path id="Shape" d="M44.739,48.773a4.016,4.016,0,0,1-2.854-1.182L31.05,36.756a4.021,4.021,0,0,1-1.09-2.022,19.068,19.068,0,1,1,4.771-4.77,4.037,4.037,0,0,1,2.021,1.087L47.588,41.89a4.033,4.033,0,0,1-2.848,6.883ZM19.073,4.838A14.222,14.222,0,1,0,29.148,9,14.149,14.149,0,0,0,19.073,4.838Z" transform="translate(8.002 7)" fill="#f18000"/>
  </g>
</svg>
