<svg xmlns="http://www.w3.org/2000/svg" width="54" height="46.001" viewBox="0 0 54 46.001">
  <g id="Icons" transform="translate(-5 -9)">
    <path id="Combined_Shape" data-name="Combined Shape" d="M3.68,34.93,1.5,37.145a.876.876,0,0,1-1.238,0,.9.9,0,0,1,0-1.278l3.538-3.6a.812.812,0,0,1,.284-.2.871.871,0,0,1,.672,0,.812.812,0,0,1,.284.2l3.538,3.6a.9.9,0,0,1,0,1.278.887.887,0,0,1-1.238,0l-1.8-1.837C6.811,42.6,13.747,48.2,22.116,48.2a.9.9,0,0,1,.885.9.885.885,0,0,1-.885.9C12.614,50,4.777,43.411,3.68,34.93ZM37,41l3.5-9L44,41ZM49.415,22a.874.874,0,0,1-.733-.378l-3.575-3.474a.9.9,0,0,1-.019-1.278.92.92,0,0,1,1.3,0l1.888,1.836A15.51,15.51,0,0,0,32.917,5.8.9.9,0,0,1,32,4.9a.911.911,0,0,1,.916-.9A17.331,17.331,0,0,1,50.2,19.084l2.219-2.214a.919.919,0,0,1,1.3,0,.875.875,0,0,1,.018,1.26l-3.63,3.6a.7.7,0,0,1-.329.2.069.069,0,0,1-.055.018,1.49,1.49,0,0,1-.275.054ZM11,11h9c-.463,2.115-2.444,4.739-4.5,7C13.444,15.739,11.463,13.115,11,11Z" transform="translate(5 5)" fill="#f18000"/>
  </g>
</svg>
