<svg xmlns="http://www.w3.org/2000/svg" width="48.667" height="46.482" viewBox="0 0 48.667 46.482">
  <g id="Icons" transform="translate(-7.666 -6.519)">
    <g id="_7" data-name="7" transform="translate(4 4)">
      <path id="Star" d="M28.931,42.489a2,2,0,0,0-1.861,0l-11.94,6.277a2,2,0,0,1-2.9-2.108l2.28-13.3a2,2,0,0,0-.575-1.77l-9.66-9.416a2,2,0,0,1,1.108-3.411l13.35-1.94a2,2,0,0,0,1.506-1.094l5.97-12.1a2,2,0,0,1,3.587,0l5.97,12.1a2,2,0,0,0,1.506,1.094l13.35,1.94a2,2,0,0,1,1.108,3.411l-9.66,9.416a2,2,0,0,0-.575,1.77l2.28,13.3a2,2,0,0,1-2.9,2.108Z" fill="#f18000"/>
    </g>
  </g>
</svg>
