<svg xmlns="http://www.w3.org/2000/svg" width="48" height="48" viewBox="0 0 48 48">
  <g id="Icons" transform="translate(-8 -8)">
    <path id="Combined_Shape" data-name="Combined Shape" d="M42.712,46.975,33,37.274,37.277,33,46.2,41.912c1.119,1.12,1.85,2.1,1.8,3.17a2.664,2.664,0,0,1-1.1,1.909,2.665,2.665,0,0,1-4.189-.016Zm-19.478-19.4a.812.812,0,0,1,0-1.141,2.391,2.391,0,0,0,.678-2.155l-.661-3.314a.8.8,0,0,1,1.355-.724L36,31.658,31.654,36ZM13,25a1,1,0,0,1,.986-1H14a1,1,0,0,1,1,1,1,1,0,0,1-2,0Zm-7.853.878a.828.828,0,0,1-.365-.861L6.27,17.4.318,12.83a.812.812,0,0,1,.121-1.364L6.25,8.491,4.781.969A.814.814,0,0,1,5.146.124a.773.773,0,0,1,.908.049L13.5,6.266,20.946.173a.774.774,0,0,1,.908-.049.814.814,0,0,1,.365.845L20.75,8.491l5.811,2.975a.812.812,0,0,1,.121,1.364L20.73,17.4l1.448,7.409a.862.862,0,0,1,.089.374.8.8,0,0,1-.81.812h-.016a.727.727,0,0,1-.5-.178L13.5,19.72,6.054,25.814A.743.743,0,0,1,5.562,26,.78.78,0,0,1,5.146,25.879ZM0,19a1,1,0,0,1,.986-1h.02A1,1,0,0,1,2,19a1,1,0,1,1-2,0ZM24,7a1,1,0,0,1,.985-1H25a1,1,0,0,1,1,1,1,1,0,1,1-2,0ZM0,7A1,1,0,0,1,.986,6h.02A1,1,0,0,1,2,7,1,1,0,1,1,0,7ZM13,1a1,1,0,0,1,.986-1H14a1,1,0,0,1,1,1,1,1,0,0,1-2,0Z" transform="translate(8 8)" fill="#f18000"/>
  </g>
</svg>
